<?xml version="1.0" encoding="utf-8"?>
<svg viewBox="0 0 500 500" xmlns="http://www.w3.org/2000/svg">
  <path style="fill: rgb(216, 216, 216); stroke: rgb(0, 0, 0);" d="M 256 319.907 L 288 256 C 288 256 351.584 255.585 352 256 C 352.413 256.413 384 319.907 384 319.907 C 384 319.907 352 383.403 352 383.816 C 352 384.23 288 383.816 288 383.816 L 256 319.907 Z" transform="matrix(1, 0, 0, 1, 0, -1.1368683772161603e-13)"/>
  <path style="fill: rgb(216, 216, 216); stroke: rgb(0, 0, 0);" d="M 352 255.907 L 384 192 C 384 192 447.584 191.585 448 192 C 448.413 192.413 480 255.907 480 255.907 C 480 255.907 448 319.403 448 319.816 C 448 320.23 384 319.816 384 319.816 L 352 255.907 Z" transform="matrix(1, 0, 0, 1, 0, -1.1368683772161603e-13)"/>
  <path style="fill: rgb(216, 216, 216); stroke: rgb(0, 0, 0);" d="M 352 383.907 L 384 320 C 384 320 447.584 319.585 448 320 C 448.413 320.413 480 383.907 480 383.907 C 480 383.907 448 447.403 448 447.816 C 448 448.23 384 447.816 384 447.816 L 352 383.907 Z" transform="matrix(1, 0, 0, 1, 0, -1.1368683772161603e-13)"/>
  <path style="fill: rgb(216, 216, 216); stroke: rgb(0, 0, 0);" d="M 448 319.907 L 480 256 C 480 256 543.584 255.585 544 256 C 544.413 256.413 576 319.907 576 319.907 C 576 319.907 544 383.403 544 383.816 C 544 384.23 480 383.816 480 383.816 L 448 319.907 Z" transform="matrix(1, 0, 0, 1, 0, -1.1368683772161603e-13)"/>
  <path style="fill: rgb(216, 216, 216); stroke: rgb(0, 0, 0);" d="M 256 191.723 L 288 127.816 C 288 127.816 351.584 127.401 352 127.816 C 352.413 128.229 384 191.723 384 191.723 C 384 191.723 352 255.219 352 255.632 C 352 256.046 288 255.632 288 255.632 L 256 191.723 Z" transform="matrix(1, 0, 0, 1, 0, -1.1368683772161603e-13)"/>
  <path style="fill: rgb(216, 216, 216); stroke: rgb(0, 0, 0); transform-origin: 719.854px 170.602px;" d="M 448 191.723 L 480 127.816 C 480 127.816 543.584 127.401 544 127.816 C 544.413 128.229 576 191.723 576 191.723 C 576 191.723 544 255.219 544 255.632 C 544 256.046 480 255.632 480 255.632 L 448 191.723 Z"/>
  <path style="fill: rgb(216, 216, 216); stroke: rgb(0, 0, 0); transform-origin: 416.48px 128.571px;" d="M 352 128.091 L 384 64.184 C 384 64.184 447.584 63.769 448 64.184 C 448.413 64.597 480 128.091 480 128.091 C 480 128.091 448 191.587 448 192 C 448 192.414 384 192 384 192 L 352 128.091 Z"/>
  <path style="fill: rgb(216, 216, 216); stroke: rgb(0, 0, 0); transform-origin: 320.48px 64.019px;" d="M 256 63.539 L 288 -0.368 C 288 -0.368 351.584 -0.783 352 -0.368 C 352.413 0.045 384 63.539 384 63.539 C 384 63.539 352 127.035 352 127.448 C 352 127.862 288 127.448 288 127.448 L 256 63.539 Z"/>
  <path style="fill: rgb(216, 216, 216); stroke: rgb(0, 0, 0); transform-origin: 512.48px 64.571px;" d="M 448 64.091 L 480 0.184 C 480 0.184 543.584 -0.231 544 0.184 C 544.413 0.597 576 64.091 576 64.091 C 576 64.091 544 127.587 544 128 C 544 128.414 480 128 480 128 L 448 64.091 Z"/>
  <path style="fill: rgb(216, 216, 216); stroke: rgb(0, 0, 0); transform-origin: 96.48px 192.203px;" d="M 32 191.723 L 64 127.816 C 64 127.816 127.584 127.401 128 127.816 C 128.413 128.229 160 191.723 160 191.723 C 160 191.723 128 255.219 128 255.632 C 128 256.046 64 255.632 64 255.632 L 32 191.723 Z"/>
</svg>