<?xml version="1.0" encoding="utf-8"?>
<svg viewBox="0 0 500 500" xmlns="http://www.w3.org/2000/svg" xmlns:bx="https://boxy-svg.com">
  <defs>
    <radialGradient gradientUnits="userSpaceOnUse" cx="674.084" cy="204.894" r="106.333" id="gradient-0" gradientTransform="matrix(1.061193, 0, 0, 1.022725, -38.164206, -5.61305)">
      <stop offset="0" style="stop-color: rgb(255, 255, 255);"/>
      <stop offset="1" style="stop-color: rgb(0% 0% 0%)"/>
    </radialGradient>
  </defs>
  <path style="stroke: rgb(255, 255, 255); fill: url('#gradient-0'); stroke-width: 6.99422px;" transform="matrix(2.2194418907165527, 0, 0, 2.2194418907165527, -1132.1927827654108, -296.20227933532806)" d="M 602.516 140.667 L 644.818 140.667 L 640.372 163.017 A 85.628 85.628 0 0 1 671.239 175.803 L 683.9 156.855 L 713.812 186.767 L 694.864 199.428 A 85.628 85.628 0 0 1 707.65 230.295 L 730 225.849 L 730 268.151 L 707.65 263.705 A 85.628 85.628 0 0 1 694.864 294.572 L 713.812 307.233 L 683.9 337.145 L 671.239 318.197 A 85.628 85.628 0 0 1 640.372 330.983 L 644.818 353.333 L 602.516 353.333 L 606.962 330.983 A 85.628 85.628 0 0 1 576.095 318.197 L 563.434 337.145 L 533.522 307.233 L 552.47 294.572 A 85.628 85.628 0 0 1 539.684 263.705 L 517.334 268.151 L 517.334 225.849 L 539.684 230.295 A 85.628 85.628 0 0 1 552.47 199.428 L 533.522 186.767 L 563.434 156.855 L 576.095 175.803 A 85.628 85.628 0 0 1 606.962 163.017 Z M 623.667 247 A 0 0 0 0 0 623.667 247 A 0 0 0 0 0 623.667 247" bx:shape="cog 623.667 247 0 85.628 106.333 0 8 1@577e567b"/>
</svg>